<svg xmlns="http://www.w3.org/2000/svg" viewBox="0 0 64 64"><defs><style>.a{fill:#333;}</style></defs><title>roicon</title><path class="a" d="M3.75,43.51L1.66,15.35H62.24L60.08,43.51H54.26l1.45-21.76H8L9.63,43.51H3.75ZM54.6,5.11l0.62-3.84H8.95L9.57,5.11h45ZM49.37,33.27H35.43l0,2.56H49.15Zm8.69-20.48,0.62-5.12H5.06l0.62,5.12H58.06Zm-8.27,12.8H35.49l0,3.84H49.56Zm-1,17.92L49,39.67h-9l-0.1,3.84h8.9ZM17.23,39.17c-2.78.58-2.47,1.78-2.31,4.34H34.31c0-2.56.24-3.76-2.58-4.34s-5.48-1.1-4.24-3.24c3.89-6.49.87-10-3.43-10s-7.09,3.62-2.78,10C22.68,38.09,20,38.61,17.23,39.17ZM64,47.35h0L60.74,62.71H3.11L0,47.35H64Z"/></svg>